<?xml version="1.0" encoding="UTF-8"?><!DOCTYPE svg PUBLIC "-//W3C//DTD SVG 1.0//EN" "http://www.w3.org/TR/2001/REC-SVG-20010904/DTD/svg10.dtd" []><svg xmlns="http://www.w3.org/2000/svg" xmlns:xlink="http://www.w3.org/1999/xlink" height="463.9" preserveAspectRatio="xMidYMid meet" version="1.0" viewBox="69.0 24.1 374.0 463.9" width="374.0" zoomAndPan="magnify"><g><g><g><g id="change1_1"><path d="M256,487.943c-48.196,0-93.642-5.506-127.965-15.502c-38.633-11.252-59.053-27.174-59.053-46.045 c0-37.657,80.232-56.065,148.938-60.387c5.512-0.362,10.261,3.841,10.608,9.353c0.347,5.512-3.841,10.262-9.353,10.608 c-38.036,2.392-72.473,8.517-96.965,17.246c-24.526,8.741-33.229,17.95-33.229,23.18c0,5.141,9.403,16.578,44.646,26.843 c32.558,9.482,76.017,14.704,122.373,14.704c46.366,0,89.829-5.222,122.383-14.704c35.234-10.263,44.636-21.702,44.636-26.843 c0-13.459-47.355-35.655-132.98-40.582c-5.514-0.317-9.727-5.044-9.409-10.558c0.316-5.514,5.055-9.74,10.558-9.409 c70.041,4.03,151.832,22.306,151.832,60.549c0,18.872-20.417,34.794-59.043,46.045C349.655,482.437,304.206,487.943,256,487.943 z"/></g></g><g><g id="change1_2"><path d="M254.436,445.022c-3.635,0.001-6.984-1.971-8.747-5.149c-9.042-16.302-22.944-38.418-39.042-64.025 c-44.979-71.55-100.956-160.596-100.956-203.048c0-82.017,66.726-148.743,148.743-148.743 c82.002,0,148.716,66.726,148.716,148.743c0,44.576-52.702,127.512-99.2,200.685c-16.011,25.195-31.133,48.994-40.77,66.385 C261.419,443.049,258.071,445.021,254.436,445.022z M254.434,44.057c-70.989,0-128.743,57.754-128.743,128.743 c0,36.688,56.577,126.688,97.888,192.403c11.765,18.716,22.369,35.584,30.858,49.838c9.183-15.381,20.662-33.445,32.633-52.283 c40.548-63.81,96.08-151.2,96.08-189.958C383.15,101.811,325.408,44.057,254.434,44.057z"/></g></g><g><g id="change1_3"><path d="M254.434,239.55c-39.704,0-72.006-32.29-72.006-71.979c0-39.704,32.302-72.005,72.006-72.005 c39.689,0,71.979,32.301,71.979,72.005C326.413,207.26,294.123,239.55,254.434,239.55z M254.434,115.565 c-28.676,0-52.006,23.33-52.006,52.005c0,28.661,23.33,51.979,52.006,51.979c28.662,0,51.979-23.318,51.979-51.979 C306.413,138.895,283.096,115.565,254.434,115.565z"/></g></g></g></g></svg>